<?xml version="1.0" encoding="UTF-8" standalone="no"?>
<!DOCTYPE svg PUBLIC "-//W3C//DTD SVG 1.1//EN" "http://www.w3.org/Graphics/SVG/1.1/DTD/svg11.dtd">
<svg width="100%" height="100%" viewBox="0 0 304 231" version="1.1" xmlns="http://www.w3.org/2000/svg" xmlns:xlink="http://www.w3.org/1999/xlink" xml:space="preserve" xmlns:serif="http://www.serif.com/" style="fill-rule:evenodd;clip-rule:evenodd;stroke-linejoin:round;stroke-miterlimit:2;">
    <g id="Logo" transform="matrix(0.988961,0,0,1.99073,-0.172715,2.72844)">
        <rect x="0.175" y="-1.371" width="306.909" height="115.847" style="fill:none;"/>
        <g transform="matrix(3.41659,0,0,1.6973,-445.611,-126.821)">
            <text x="157.304px" y="92.918px" style="font-family:'Banthers';font-size:12px;">T<tspan x="164.336px 173.252px 180.824px 187.76px 196.436px 204.488px 212.312px " y="92.918px 92.918px 92.918px 92.918px 92.918px 92.918px 92.918px ">OUKOLAN</tspan></text>
            <text x="157.304px" y="104.918px" style="font-family:'Banthers';font-size:12px;">T<tspan x="165.536px 173.192px 182.324px 189.788px 199.04px 202.928px 210.992px " y="104.918px 104.918px 104.918px 104.918px 104.918px 104.918px 104.918px ">ERAPIA-</tspan></text>
            <g transform="matrix(12,0,0,12,189.296,116.918)">
            </g>
            <text x="157.304px" y="116.918px" style="font-family:'Banthers';font-size:12px;">T<tspan x="164.744px 173.564px " y="116.918px 116.918px ">AL</tspan>O</text>
        </g>
        <g transform="matrix(22.0664,0,0,10.9622,-3478.17,-926.47)">
            <path d="M164.552,84.914C164.516,84.806 164.552,84.59 164.396,84.59C164.336,84.59 164.264,84.602 164.18,84.602C163.952,84.602 163.664,84.578 163.436,84.554C162.872,84.542 162.5,84.542 162.32,84.542L162.116,84.542C161.828,84.542 161.156,84.542 160.844,84.554C160.712,84.566 160.532,84.578 160.328,84.578C159.872,84.578 159.32,84.542 158.984,84.518L158.972,84.518C158.864,84.494 158.792,84.482 158.684,84.506C158.54,84.53 158.408,84.506 158.276,84.506C158.204,84.506 158.12,84.518 158.048,84.542C158.024,84.542 157.988,84.614 157.916,84.77C157.856,84.89 157.808,84.866 157.784,84.95C157.784,84.95 157.772,84.95 157.772,84.962L157.772,84.998C157.748,85.058 157.736,85.142 157.724,85.226C157.712,85.322 157.724,85.37 157.748,85.382C157.772,85.394 157.808,85.394 157.844,85.394C157.928,85.394 158.024,85.37 158.132,85.346C158.24,85.31 158.36,85.298 158.48,85.298L158.528,85.298C158.648,85.31 159.044,85.274 159.956,85.31C160.352,85.37 160.664,85.526 160.688,85.934C160.688,85.97 160.688,85.994 160.7,86.03C160.712,86.186 160.724,86.306 160.712,86.498C160.7,86.678 160.7,86.75 160.712,86.822C160.736,86.894 160.652,87.806 160.664,87.938C160.688,88.118 160.688,88.298 160.688,88.478L160.724,88.826L160.724,88.838C160.724,88.982 160.688,90.278 160.652,90.566L160.652,90.71C160.652,91.286 160.628,91.67 160.628,92.042L160.628,92.066C160.604,92.27 160.592,92.486 160.592,92.69C160.592,92.954 160.616,93.23 160.568,93.518C160.568,93.542 160.568,93.602 160.556,93.734C160.544,93.902 160.532,94.142 160.532,94.202C160.532,94.418 160.34,94.586 160.436,94.838C160.46,94.886 160.616,94.922 160.916,94.922C162.128,94.922 161.348,94.742 161.348,94.106L161.348,94.094C161.372,93.758 161.36,93.482 161.336,93.23L161.336,92.654C161.324,92.57 161.336,92.366 161.36,91.958C161.372,91.718 161.384,91.454 161.384,91.334C161.384,91.202 161.396,91.094 161.408,90.974C161.432,90.746 161.432,90.518 161.432,90.29C161.432,90.038 161.444,89.294 161.432,89.066C161.408,88.658 161.384,87.434 161.432,87.098C161.444,86.918 161.468,86.738 161.468,86.51C161.468,85.502 162.212,85.31 162.968,85.31L163.196,85.31C163.388,85.31 163.724,85.346 163.952,85.382C164.096,85.394 164.24,85.478 164.336,85.49C164.468,85.49 164.552,85.478 164.588,85.322C164.648,85.106 164.612,85.154 164.552,84.914Z" style="fill-rule:nonzero;"/>
        </g>
        <g transform="matrix(3.58827,0,0,1.78259,-702.643,-279.454)">
            <g transform="matrix(12,0,0,12,281.008,181.081)">
            </g>
            <text x="272.056px" y="181.081px" style="font-family:'Banthers';font-size:12px;">_</text>
        </g>
    </g>
</svg>
